<svg width="16" height="16" viewBox="0 0 16 16" fill="none" xmlns="http://www.w3.org/2000/svg">
<g clip-path="url(#clip0_87_1825)">
<path d="M7.99967 1.33398C5.41967 1.33398 3.33301 3.42065 3.33301 6.00065C3.33301 9.50065 7.99967 14.6673 7.99967 14.6673C7.99967 14.6673 12.6663 9.50065 12.6663 6.00065C12.6663 3.42065 10.5797 1.33398 7.99967 1.33398ZM4.66634 6.00065C4.66634 4.16065 6.15967 2.66732 7.99967 2.66732C9.83967 2.66732 11.333 4.16065 11.333 6.00065C11.333 7.92065 9.41301 10.794 7.99967 12.5873C6.61301 10.8073 4.66634 7.90065 4.66634 6.00065Z" fill="#5101A0"/>
<path d="M7.99967 7.66732C8.92015 7.66732 9.66634 6.92113 9.66634 6.00065C9.66634 5.08018 8.92015 4.33398 7.99967 4.33398C7.0792 4.33398 6.33301 5.08018 6.33301 6.00065C6.33301 6.92113 7.0792 7.66732 7.99967 7.66732Z" fill="#5101A0"/>
</g>
<defs>
<clipPath id="clip0_87_1825">
<rect width="16" height="16" fill="white"/>
</clipPath>
</defs>
</svg>
