<svg width="18" height="18" viewBox="0 0 18 18" fill="none" xmlns="http://www.w3.org/2000/svg">
<g clip-path="url(#clip0_87_1819)">
<path d="M7.5 10.3125C5.745 10.3125 2.25 11.19 2.25 12.9375V14.25H12.75V12.9375C12.75 11.19 9.255 10.3125 7.5 10.3125ZM4.005 12.75C4.635 12.315 6.1575 11.8125 7.5 11.8125C8.8425 11.8125 10.365 12.315 10.995 12.75H4.005ZM7.5 9C8.9475 9 10.125 7.8225 10.125 6.375C10.125 4.9275 8.9475 3.75 7.5 3.75C6.0525 3.75 4.875 4.9275 4.875 6.375C4.875 7.8225 6.0525 9 7.5 9ZM7.5 5.25C8.1225 5.25 8.625 5.7525 8.625 6.375C8.625 6.9975 8.1225 7.5 7.5 7.5C6.8775 7.5 6.375 6.9975 6.375 6.375C6.375 5.7525 6.8775 5.25 7.5 5.25Z" fill="#47576A"/>
<path d="M10.5 7.875L12.3068 9.75L16.125 6" stroke="#47576A" stroke-width="1.2"/>
</g>
<defs>
<clipPath id="clip0_87_1819">
<rect width="18" height="18" fill="white"/>
</clipPath>
</defs>
</svg>
