<svg width="17" height="16" viewBox="0 0 17 16" fill="none" xmlns="http://www.w3.org/2000/svg">
<rect x="0.867188" y="1.44336" width="13.4998" height="13.1713" fill="white"/>
<path d="M13.8595 13.5943H11.4955V9.92671C11.4955 9.05213 11.4798 7.92628 10.2661 7.92628C9.03484 7.92628 8.84646 8.87917 8.84646 9.86303V13.5941H6.48251V6.05198H8.75189V7.08268H8.78366C9.01078 6.69798 9.33896 6.3815 9.73326 6.16696C10.1276 5.95242 10.5732 5.84784 11.0228 5.86438C13.4187 5.86438 13.8605 7.42568 13.8605 9.45685L13.8595 13.5943ZM3.81522 5.02103C3.54389 5.02107 3.27865 4.94141 3.05302 4.79212C2.8274 4.64282 2.65155 4.43059 2.54767 4.18227C2.4438 3.93395 2.41658 3.6607 2.46946 3.39705C2.52234 3.13341 2.65296 2.89122 2.84478 2.70112C3.03659 2.51102 3.28101 2.38153 3.5471 2.32905C3.8132 2.27656 4.08903 2.30342 4.33971 2.40624C4.5904 2.50906 4.80468 2.68322 4.95546 2.90669C5.10624 3.13016 5.18674 3.39291 5.18679 3.66171C5.18682 3.84019 5.15137 4.01692 5.08246 4.18182C5.01355 4.34672 4.91254 4.49657 4.78517 4.62279C4.65781 4.74901 4.50659 4.84915 4.34017 4.91748C4.17374 4.98581 3.99537 5.02099 3.81522 5.02103ZM4.99718 13.5943H2.63079V6.05198H4.99718V13.5943ZM15.038 0.12803H1.44292C1.13435 0.12458 0.837001 0.242639 0.616248 0.456263C0.395495 0.669887 0.269391 0.961598 0.265625 1.2673V14.7919C0.269262 15.0977 0.395292 15.3897 0.616038 15.6035C0.836783 15.8173 1.13419 15.9356 1.44292 15.9324H15.038C15.3473 15.9362 15.6456 15.8183 15.8672 15.6044C16.0888 15.3906 16.2157 15.0983 16.22 14.7919V1.26632C16.2155 0.960017 16.0886 0.667973 15.867 0.454354C15.6453 0.240735 15.3472 0.123014 15.038 0.127054" fill="#0A66C2"/>
</svg>
