<svg width="40" height="41" viewBox="0 0 40 41" fill="none" xmlns="http://www.w3.org/2000/svg">
<g clip-path="url(#clip0_96_516)">
<rect y="0.0371094" width="40" height="40" rx="20" fill="#F1F4F8"/>
<g clip-path="url(#clip1_96_516)">
<path d="M22.06 17.0571L22.98 17.9771L13.92 27.0371H13V26.1171L22.06 17.0571ZM25.66 11.0371C25.41 11.0371 25.15 11.1371 24.96 11.3271L23.13 13.1571L26.88 16.9071L28.71 15.0771C29.1 14.6871 29.1 14.0571 28.71 13.6671L26.37 11.3271C26.17 11.1271 25.92 11.0371 25.66 11.0371ZM22.06 14.2271L11 25.2871V29.0371H14.75L25.81 17.9771L22.06 14.2271Z" fill="#47576A"/>
</g>
</g>
<defs>
<clipPath id="clip0_96_516">
<rect y="0.0371094" width="40" height="40" rx="20" fill="white"/>
</clipPath>
<clipPath id="clip1_96_516">
<rect width="24" height="24" fill="white" transform="translate(8 8.03711)"/>
</clipPath>
</defs>
</svg>
