<svg width="18" height="16" viewBox="0 0 18 16" fill="none" xmlns="http://www.w3.org/2000/svg">
<rect x="1.37207" y="2.01758" width="13.9615" height="12.6923" fill="white"/>
<path d="M14.8088 13.7276H12.364V10.1934C12.364 9.35063 12.3477 8.26571 11.0925 8.26571C9.81914 8.26571 9.62431 9.18395 9.62431 10.132V13.7274H7.17952V6.45957H9.52651V7.4528H9.55937C9.79425 7.08208 10.1337 6.77711 10.5414 6.57037C10.9492 6.36363 11.4101 6.26286 11.875 6.27879C14.3529 6.27879 14.8098 7.78332 14.8098 9.74063L14.8088 13.7276ZM4.42099 5.46611C4.14039 5.46615 3.86607 5.38939 3.63273 5.24552C3.3994 5.10165 3.21753 4.89714 3.1101 4.65785C3.00267 4.41856 2.97452 4.15524 3.02921 3.90119C3.0839 3.64713 3.21898 3.41375 3.41736 3.23056C3.61574 3.04737 3.86851 2.9226 4.14371 2.87202C4.41891 2.82144 4.70417 2.84733 4.96343 2.94641C5.22269 3.04549 5.4443 3.21331 5.60023 3.42866C5.75617 3.644 5.83943 3.8972 5.83948 4.15622C5.83951 4.32821 5.80284 4.49851 5.73158 4.65742C5.66031 4.81633 5.55584 4.96072 5.42413 5.08235C5.29241 5.20399 5.13601 5.30048 4.9639 5.36632C4.79178 5.43217 4.6073 5.46607 4.42099 5.46611ZM5.64338 13.7276H3.19605V6.45957H5.64338V13.7276ZM16.0276 0.751038H1.96756C1.64843 0.747713 1.34092 0.861479 1.11261 1.06733C0.884311 1.27319 0.753895 1.55429 0.75 1.84888V14.8817C0.753761 15.1764 0.884102 15.4577 1.1124 15.6638C1.34069 15.8698 1.64827 15.9838 1.96756 15.9807H16.0276C16.3475 15.9844 16.656 15.8707 16.8852 15.6647C17.1144 15.4586 17.2456 15.177 17.25 14.8817V1.84794C17.2454 1.55277 17.1141 1.27135 16.8849 1.0655C16.6557 0.859644 16.3474 0.746204 16.0276 0.750097" fill="#0A66C2"/>
</svg>
